<svg width="101" height="101" viewBox="0 0 101 101" fill="none" xmlns="http://www.w3.org/2000/svg">
<circle cx="50.0037" cy="50.0042" r="36.7215" fill="#F1F1F1" stroke="#192632" stroke-width="0.5"/>
<path d="M41.5928 42.5171H57.3057V58.23" stroke="#192632" stroke-width="5"/>
<path d="M41.5928 58.23L57.3057 42.5171" stroke="#192632" stroke-width="5"/>
<path d="M54.767 0.185966L54.5346 5.20705L53.8837 5.16056L54.1161 0.697373L51.7915 0.60439L51.5591 5.06758L50.9082 5.02109L51.1872 0L54.767 0.185966Z" fill="#192632"/>
<path d="M56.1614 3.67285C56.0684 4.55619 56.5798 4.97461 57.2307 5.0676C57.6956 5.11409 57.9746 5.11409 58.2536 5.0211L58.3 5.48602C58.0676 5.579 57.6492 5.62549 57.0913 5.53251C55.9755 5.39304 55.4641 4.55619 55.6035 3.48688C55.743 2.41758 56.4869 1.67371 57.5562 1.81319C58.7185 1.99915 58.9044 3.02197 58.8114 3.71934C58.8114 3.85882 58.7649 3.9518 58.7649 3.99829L56.1614 3.67285ZM58.1141 3.48688C58.1606 3.06846 58.1141 2.41758 57.3702 2.3246C56.7193 2.23161 56.3474 2.78951 56.2079 3.25443L58.1141 3.48688Z" fill="#192632"/>
<path d="M59.695 3.487C59.788 3.02208 59.8809 2.65015 59.9274 2.32471L60.4853 2.46418L60.3923 3.06857C60.7643 2.69664 61.2292 2.55716 61.7871 2.69664C62.6239 2.88261 63.0889 3.76594 62.8564 4.83525C62.5775 6.09052 61.6476 6.55544 60.8108 6.36947C60.3459 6.27649 59.9739 5.95105 59.8345 5.57911L59.416 7.48527L58.7651 7.34579L59.695 3.487ZM60.1134 4.5563C60.1134 4.64928 60.0669 4.74227 60.0669 4.83525C60.0669 5.30017 60.3923 5.71859 60.8573 5.81157C61.5546 5.95105 62.066 5.48613 62.252 4.69578C62.3915 3.9984 62.2055 3.30103 61.5081 3.16155C61.0897 3.06857 60.5783 3.30103 60.3459 3.71945C60.2994 3.81244 60.2529 3.90542 60.2529 3.95191L60.1134 4.5563Z" fill="#192632"/>
<path d="M64.019 5.34651C63.74 6.18336 64.2049 6.69476 64.8093 6.92722C65.2742 7.0667 65.5532 7.0667 65.8321 7.0667L65.7856 7.53161C65.5532 7.5781 65.1348 7.53161 64.5769 7.39214C63.5076 7.0667 63.1356 6.13686 63.4611 5.11405C63.7865 4.09124 64.6699 3.44036 65.6462 3.7658C66.762 4.13773 66.762 5.20703 66.5295 5.85792C66.483 5.99739 66.4365 6.09037 66.4365 6.13686L64.019 5.34651ZM65.9716 5.48598C66.1111 5.11405 66.1576 4.41668 65.4137 4.18422C64.7628 3.99825 64.2979 4.46317 64.112 4.88159L65.9716 5.48598Z" fill="#192632"/>
<path d="M68.5283 4.88156L67.9239 6.27631C67.6915 6.78772 67.552 7.11316 67.3196 7.57807C67.6915 7.25263 67.9239 7.06666 68.2959 6.78772L70.0625 5.48595L70.7599 5.7649L69.3652 9.0658L68.8073 8.83334L69.4117 7.4386C69.6441 6.8807 69.7836 6.60175 70.0161 6.09034C69.6441 6.41578 69.3652 6.64824 69.0397 6.8807C68.5283 7.25263 67.8774 7.76404 67.2731 8.18246L66.5757 7.90351L67.9704 4.60261L68.5283 4.88156ZM69.5046 3.67278C69.4117 3.99822 69.4582 4.27717 69.7371 4.37016C70.0161 4.50963 70.2485 4.32366 70.4345 4.04471L70.8529 4.23068C70.5739 4.78858 70.109 4.92805 69.5976 4.6956C68.9932 4.46314 68.9003 3.95173 69.0862 3.48682L69.5046 3.67278Z" fill="#192632"/>
<path d="M74.0608 7.48511L73.8284 7.95003L72.8521 7.43862L71.4573 10.1816L70.8994 9.90267L72.2942 7.15967L71.3178 6.64826L71.5503 6.18335L74.0608 7.48511Z" fill="#192632"/>
<path d="M75.2241 8.13588L74.4337 9.43765C74.1548 9.94905 73.9223 10.228 73.6434 10.6464C74.0618 10.3675 74.2943 10.228 74.7127 9.99554L76.6653 9.01922L77.3162 9.43765L75.4566 12.5061L74.9451 12.1806L75.7355 10.8789C76.0609 10.3675 76.2004 10.135 76.5259 9.62361C76.1074 9.90256 75.782 10.042 75.4566 10.2745C74.8522 10.5534 74.1548 10.9719 73.5039 11.2973L72.853 10.9254L74.7127 7.85693L75.2241 8.13588Z" fill="#192632"/>
<path d="M80.1981 11.5299L79.2218 12.7387L79.3612 12.8317L81.4069 12.4597L82.0112 12.9711L79.7797 13.2966C80.1981 13.715 80.2446 14.2264 80.0586 14.9238C79.9656 15.1562 79.8726 15.5282 79.8261 15.8536L79.2682 15.4352C79.2682 15.2492 79.3612 14.9703 79.4542 14.6448C79.6402 14.0404 79.5007 13.622 79.0358 13.2501L78.9428 13.1571L77.9665 14.4124L77.4551 13.9939L79.6867 11.158L80.1981 11.5299Z" fill="#192632"/>
<path d="M85.591 16.2722L85.2191 16.6441L84.4287 15.8538L82.2901 18.0854L81.8252 17.6204L83.9638 15.3888L83.1734 14.5985L83.5454 14.2266L85.591 16.2722Z" fill="#192632"/>
<path d="M86.8929 20.3635C85.9165 21.2468 84.8473 20.9679 84.2894 20.317C83.6385 19.5731 83.685 18.5503 84.5218 17.8064C85.4052 17.0161 86.4744 17.1091 87.1253 17.8529C87.7762 18.5968 87.6832 19.6196 86.8929 20.3635ZM84.9402 18.2714C84.3358 18.7828 84.1964 19.5266 84.6148 19.9915C85.0332 20.4565 85.7771 20.41 86.3815 19.8986C86.8464 19.4801 87.2183 18.7363 86.7069 18.1784C86.1955 17.574 85.4516 17.8064 84.9402 18.2714Z" fill="#192632"/>
<path d="M88.799 19.9915C88.9849 20.1774 89.3104 20.5029 89.5428 20.8748C89.9148 21.3397 90.4262 22.223 89.7753 22.688C89.4034 22.9669 88.9849 22.8274 88.6595 22.595C88.9385 23.0599 88.892 23.5713 88.4735 23.8503C87.7297 24.4082 86.8928 23.5248 86.4744 22.9669C86.2419 22.6415 86.0095 22.316 85.9165 22.1301L88.799 19.9915ZM86.6604 22.3625C86.7533 22.502 86.8463 22.6415 86.9393 22.7809C87.2183 23.1529 87.6832 23.5713 88.1016 23.2924C88.52 22.9669 88.2876 22.502 87.9156 21.9906L87.6367 21.6187L86.6604 22.3625ZM88.0086 21.3862L88.2876 21.7581C88.5665 22.1301 88.9849 22.4555 89.3104 22.223C89.5893 21.9906 89.5428 21.6652 89.1709 21.1537C89.0314 20.9678 88.9384 20.8748 88.8455 20.7818L88.0086 21.3862Z" fill="#192632"/>
<path d="M89.1703 26.7793L89.5422 26.5004C89.2167 26.5004 88.7983 26.3144 88.5194 25.8495C88.1474 25.2451 88.3799 24.6407 88.7983 24.3618C89.5422 23.8969 90.3325 24.3153 91.0764 25.4776L91.1229 25.4311C91.3553 25.2916 91.7738 24.9197 91.4018 24.3153C91.2159 24.0363 90.9369 23.8039 90.658 23.6644L90.9369 23.2925C91.2624 23.432 91.5878 23.7574 91.8203 24.1293C92.4247 25.0592 91.9132 25.71 91.3089 26.082L90.1931 26.8258C89.9141 27.0118 89.6817 27.1513 89.4957 27.3372L89.1703 26.7793ZM90.658 25.71C90.286 25.1057 89.7282 24.5013 89.1703 24.8732C88.7983 25.1057 88.7983 25.4311 88.9843 25.71C89.2167 26.1285 89.6352 26.175 89.9606 26.1285C90.0071 26.1285 90.1001 26.082 90.1466 26.0355L90.658 25.71Z" fill="#192632"/>
<path d="M92.0994 26.9187C92.5179 26.6863 92.8433 26.5003 93.1223 26.3608L93.4012 26.8722L92.8898 27.1977C93.4012 27.2442 93.8196 27.4766 94.0986 27.988C94.517 28.7784 94.1451 29.6617 93.1687 30.1731C92.0065 30.7775 91.0766 30.3591 90.7047 29.6152C90.4722 29.1968 90.4722 28.7319 90.7047 28.36L88.9845 29.2898L88.7056 28.7319L92.0994 26.9187ZM91.5415 27.9416C91.4486 27.988 91.4021 28.0345 91.3091 28.081C90.9836 28.4065 90.8907 28.8714 91.0766 29.2898C91.4021 29.8942 92.0994 29.9872 92.7968 29.6152C93.4477 29.2898 93.8196 28.6389 93.4942 28.0345C93.3082 27.6161 92.7968 27.4301 92.3319 27.5231C92.2389 27.5231 92.1459 27.5696 92.0529 27.6161L91.5415 27.9416Z" fill="#192632"/>
<path d="M95.1683 30.452L93.4946 31.9863C93.3087 32.1722 93.0762 32.3582 92.8903 32.4977C93.1227 32.4977 93.4017 32.4512 93.6806 32.4047L95.9122 32.2187L96.1911 32.8696L93.4946 33.0091C92.1929 33.0556 91.449 33.0091 90.9376 32.7301C90.5657 32.5442 90.3332 32.3117 90.2402 32.1722L90.7051 31.8003C90.7981 31.9398 90.9841 32.0793 91.2166 32.2187C91.4025 32.3117 91.728 32.4512 92.0999 32.4512C92.1929 32.4512 92.2394 32.4512 92.2859 32.4512C92.3324 32.4512 92.3789 32.4047 92.4253 32.3582L94.9824 29.8477L95.1683 30.452Z" fill="#192632"/>
<path d="M100.654 54.7672L95.6333 54.5348L95.6798 53.8839L100.143 54.1164L100.236 51.7918L95.7728 51.5593L95.8193 50.9084L100.84 51.1409L100.654 54.7672Z" fill="#192632"/>
<path d="M97.1677 56.1155C96.2843 56.0225 95.8659 56.534 95.7729 57.1848C95.7264 57.6497 95.7264 57.9287 95.8194 58.2076L95.3545 58.2541C95.2615 58.0217 95.215 57.6033 95.308 57.0454C95.4475 55.9296 96.2843 55.4182 97.3536 55.5576C98.4229 55.6971 99.1668 56.441 99.0273 57.5103C98.8414 58.6726 97.8185 58.8585 97.1212 58.7655C96.9817 58.7655 96.8887 58.7191 96.8422 58.7191L97.1677 56.1155ZM97.3536 58.0682C97.7721 58.1147 98.4229 58.0682 98.5159 57.3243C98.6089 56.6734 98.051 56.3015 97.5861 56.162L97.3536 58.0682Z" fill="#192632"/>
<path d="M97.3537 59.6488C97.8186 59.7418 98.1906 59.8348 98.516 59.8813L98.3765 60.4392L97.7722 60.3462C98.1441 60.7181 98.2836 61.183 98.1441 61.7409C97.9581 62.5778 97.0748 63.0427 96.0055 62.8103C94.7502 62.5313 94.2853 61.6015 94.4713 60.7646C94.5642 60.2997 94.8897 59.9278 95.2616 59.7883L93.3555 59.3699L93.4949 58.719L97.3537 59.6488ZM96.2844 60.0672C96.1914 60.0672 96.0985 60.0208 96.0055 60.0208C95.5406 60.0208 95.1221 60.3462 95.0292 60.8111C94.8897 61.5085 95.3546 62.0199 96.145 62.2059C96.8423 62.3453 97.5397 62.1129 97.6792 61.462C97.7722 61.0436 97.5397 60.5322 97.1213 60.2997C97.0283 60.2532 96.9353 60.2067 96.8888 60.2067L96.2844 60.0672Z" fill="#192632"/>
<path d="M95.5409 63.9723C94.7041 63.6934 94.1927 64.1583 93.9602 64.7627C93.8207 65.2276 93.8207 65.5066 93.8207 65.7855L93.3558 65.739C93.3093 65.5066 93.3558 65.0881 93.4953 64.5302C93.8207 63.4609 94.7506 63.089 95.7734 63.4144C96.7962 63.7399 97.4471 64.6232 97.1216 65.5995C96.7497 66.7153 95.6804 66.7153 95.0295 66.4829C94.89 66.4364 94.7971 66.3899 94.7506 66.3899L95.5409 63.9723ZM95.3549 65.9715C95.7269 66.1109 96.4242 66.1574 96.6567 65.4136C96.8427 64.7627 96.3778 64.2978 95.9593 64.1118L95.3549 65.9715Z" fill="#192632"/>
<path d="M95.9591 68.5286L94.5644 67.9242C94.053 67.6917 93.7276 67.5523 93.2626 67.3198C93.5881 67.6917 93.774 67.9242 94.053 68.2961L95.3548 70.0628L95.0758 70.7602L91.7749 69.3654L92.0074 68.8075L93.4021 69.4119C93.96 69.6444 94.239 69.7838 94.7504 70.0163C94.4249 69.6444 94.1925 69.3654 93.96 69.04C93.5881 68.5286 93.0767 67.8777 92.6583 67.2733L92.9372 66.5759L96.2381 67.9707L95.9591 68.5286ZM97.1679 69.4584C96.8425 69.3654 96.5635 69.4119 96.4706 69.6909C96.3311 69.9698 96.517 70.2023 96.796 70.3882L96.61 70.8067C96.0521 70.5277 95.9127 70.0628 96.1451 69.5514C96.3776 68.947 96.889 68.854 97.3539 69.04L97.1679 69.4584Z" fill="#192632"/>
<path d="M93.3552 74.0145L92.8903 73.782L93.4017 72.8057L90.6587 71.4109L90.9376 70.853L93.6806 72.2478L94.1921 71.2715L94.657 71.5039L93.3552 74.0145Z" fill="#192632"/>
<path d="M92.7047 75.2234L91.4029 74.433C90.8915 74.1541 90.6126 73.9216 90.1941 73.6426C90.4731 74.0611 90.6126 74.2935 90.845 74.712L91.8213 76.6646L91.4029 77.3155L88.3345 75.4558L88.6599 74.9444L89.9617 75.7348C90.4731 76.0602 90.7055 76.1997 91.217 76.5251C90.938 76.1067 90.7985 75.7813 90.5661 75.4558C90.2871 74.8514 89.8687 74.1541 89.5433 73.5032L89.9152 72.8523L92.9836 74.712L92.7047 75.2234Z" fill="#192632"/>
<path d="M89.3105 80.1986L88.1017 79.2222L88.0088 79.3617L88.3807 81.4073L87.8693 82.0117L87.5439 79.7801C87.1254 80.1986 86.614 80.2451 85.9166 80.0591C85.6842 79.9661 85.3123 79.8731 84.9868 79.8266L85.4052 79.2687C85.5912 79.2687 85.8701 79.3617 86.1956 79.4547C86.8 79.6407 87.2184 79.5012 87.5903 79.0363L87.6833 78.9433L86.428 77.967L86.8465 77.4556L89.6825 79.6872L89.3105 80.1986Z" fill="#192632"/>
<path d="M84.568 85.5444L84.1961 85.1724L84.9865 84.3821L82.7549 82.2435L83.2198 81.7786L85.4514 83.9172L86.2417 83.1268L86.6137 83.4988L84.568 85.5444Z" fill="#192632"/>
<path d="M80.4769 86.8463C79.5936 85.8699 79.8725 84.8006 80.5234 84.2427C81.2673 83.5918 82.2901 83.6383 83.0339 84.4752C83.8243 85.3585 83.7313 86.4278 82.9874 87.0787C82.2436 87.7761 81.2208 87.6831 80.4769 86.8463ZM82.6155 84.9401C82.1041 84.3357 81.3602 84.1962 80.8953 84.6147C80.4304 85.0331 80.4769 85.7769 80.9883 86.3813C81.4067 86.8463 82.1506 87.2182 82.7085 86.7068C83.2664 86.1954 83.0804 85.4515 82.6155 84.9401Z" fill="#192632"/>
<path d="M80.8496 88.7523C80.6636 88.9383 80.3382 89.2638 79.9663 89.4962C79.5013 89.8681 78.618 90.3796 78.1531 89.7287C77.8741 89.3567 78.0136 88.9383 78.2461 88.6129C77.7812 88.8918 77.2698 88.8453 76.9908 88.4269C76.4329 87.683 77.3162 86.8462 77.8741 86.4278C78.1996 86.1953 78.525 85.9629 78.711 85.8699L80.8496 88.7523ZM78.4785 86.6602C78.3391 86.7532 78.1996 86.8462 78.0601 86.9392C77.6882 87.2181 77.2698 87.683 77.5487 88.1015C77.8742 88.5199 78.3391 88.2874 78.8505 87.9155L79.2224 87.6366L78.4785 86.6602ZM79.4549 87.962L79.0829 88.2409C78.711 88.5199 78.3856 88.9383 78.618 89.2638C78.8505 89.5427 79.1759 89.4962 79.6873 89.1243C79.8733 88.9848 79.9663 88.8918 80.0593 88.7988L79.4549 87.962Z" fill="#192632"/>
<path d="M74.1077 89.171L74.3866 89.5429C74.3866 89.2175 74.5726 88.799 75.0375 88.5201C75.6419 88.1482 76.2463 88.3806 76.5253 88.799C76.9902 89.5429 76.5718 90.3333 75.4095 91.0771L75.456 91.1236C75.5954 91.3561 75.9674 91.7745 76.5718 91.4026C76.8507 91.2166 77.0832 90.9377 77.2226 90.6587L77.5946 90.9377C77.4551 91.2631 77.1296 91.5885 76.7577 91.821C75.8279 92.4254 75.177 91.914 74.8051 91.3096L74.0612 90.1938C73.8752 89.9148 73.7358 89.6824 73.5498 89.4964L74.1077 89.171ZM75.177 90.6587C75.7814 90.2868 76.3858 89.7289 76.0139 89.171C75.7814 88.799 75.456 88.799 75.177 88.985C74.7586 89.2175 74.7121 89.6359 74.7586 89.9613C74.7586 90.0078 74.8051 90.1008 74.8516 90.1473L75.177 90.6587Z" fill="#192632"/>
<path d="M73.9685 92.0533C74.2009 92.4717 74.3869 92.7972 74.5264 93.0761L74.015 93.3551L73.6895 92.8437C73.643 93.3551 73.4106 93.7735 72.8992 94.0524C72.1088 94.4709 71.2255 94.0989 70.7141 93.1226C70.1097 91.9603 70.5281 91.0305 71.272 90.6586C71.6904 90.4261 72.1553 90.4261 72.5273 90.6586L71.5974 88.9384L72.1553 88.6594L73.9685 92.0533ZM72.9457 91.5419C72.8992 91.4489 72.8527 91.4024 72.8062 91.3094C72.4808 90.984 72.0158 90.891 71.5974 91.077C70.993 91.4024 70.9001 92.0998 71.272 92.7972C71.5974 93.4481 72.2483 93.82 72.8527 93.4945C73.2711 93.3086 73.4571 92.7972 73.3641 92.3323C73.3641 92.2393 73.3176 92.1463 73.2711 92.0533L72.9457 91.5419Z" fill="#192632"/>
<path d="M70.3886 95.1684L68.8543 93.4947C68.6684 93.3088 68.4824 93.0763 68.3429 92.8904C68.3429 93.1228 68.3894 93.4018 68.4359 93.6807L68.6219 95.9123L67.971 96.1913L67.878 93.4483C67.8315 92.1465 67.878 91.4026 68.157 90.8912C68.3429 90.5193 68.5754 90.2868 68.7149 90.1938L69.0868 90.6588C68.9473 90.7517 68.8078 90.9377 68.6684 91.1702C68.5754 91.3561 68.4359 91.6816 68.4359 92.0535C68.4359 92.1465 68.4359 92.193 68.4359 92.2395C68.4359 92.286 68.4824 92.3325 68.5289 92.3789L71.0394 94.936L70.3886 95.1684Z" fill="#192632"/>
<path d="M46.0732 100.654L46.3057 95.6333L46.9566 95.6798L46.7241 100.143L49.0487 100.236L49.2812 95.7728L49.932 95.8193L49.6996 100.84L46.0732 100.654Z" fill="#192632"/>
<path d="M44.7255 97.1213C44.8184 96.2379 44.307 95.8195 43.6561 95.7265C43.1912 95.68 42.9123 95.68 42.6333 95.773L42.5868 95.3081C42.8193 95.2151 43.2377 95.1686 43.7956 95.2616C44.9114 95.4011 45.4228 96.2379 45.2833 97.3073C45.1439 98.3766 44.4 99.1204 43.3307 98.9809C42.1684 98.795 41.9824 97.7257 42.0754 97.0748C42.0754 96.9353 42.1219 96.8423 42.1219 96.7958L44.7255 97.1213ZM42.7728 97.3537C42.7263 97.7722 42.7728 98.423 43.5167 98.516C44.1675 98.609 44.5395 98.0511 44.679 97.5862L42.7728 97.3537Z" fill="#192632"/>
<path d="M41.1914 97.3535C41.0984 97.8184 41.0054 98.1903 40.9589 98.5158L40.401 98.3763L40.494 97.7719C40.122 98.1439 39.6571 98.2833 39.0992 98.1439C38.2624 97.9579 37.7975 97.0745 38.0299 96.0052C38.3089 94.75 39.2387 94.2851 40.0756 94.471C40.5405 94.564 40.9124 94.8894 41.0519 95.2614L41.4703 93.3552L42.1212 93.4947L41.1914 97.3535ZM40.7729 96.2842C40.7729 96.1912 40.8194 96.0982 40.8194 96.0052C40.8194 95.5403 40.494 95.1219 40.0291 95.0289C39.3317 94.8894 38.8203 95.3544 38.6343 96.1447C38.4948 96.8421 38.6808 97.5395 39.3782 97.6789C39.7966 97.7719 40.308 97.5395 40.5405 97.121C40.587 97.0281 40.6334 96.9351 40.6334 96.8886L40.7729 96.2842Z" fill="#192632"/>
<path d="M36.8678 95.4938C37.1467 94.6569 36.6818 94.1455 36.0774 93.9131C35.6125 93.7736 35.3336 93.7736 35.0546 93.7736L35.1011 93.3087C35.3336 93.2622 35.752 93.3087 36.3099 93.4482C37.3792 93.7736 37.7511 94.7034 37.4257 95.7263C37.1002 96.7491 36.2169 97.4 35.2406 97.0745C34.1248 96.7026 34.1248 95.6333 34.3572 94.9824C34.4037 94.8429 34.4502 94.7499 34.4502 94.7034L36.8678 95.4938ZM34.9151 95.3543C34.7757 95.7263 34.7292 96.4236 35.4731 96.6561C36.1239 96.842 36.5888 96.3771 36.7748 95.9587L34.9151 95.3543Z" fill="#192632"/>
<path d="M31.3819 97.1212C31.4749 96.7957 31.4284 96.5168 31.1495 96.4238C30.8705 96.2843 30.6381 96.4703 30.4521 96.7493L30.0337 96.5633C30.3126 96.0054 30.7776 95.8659 31.289 96.0984C31.8934 96.3308 31.9863 96.8422 31.8004 97.3072L31.3819 97.1212ZM32.3583 95.9589L32.9627 94.5642C33.1951 94.0527 33.3346 93.7273 33.5671 93.2624C33.1951 93.5878 32.9627 93.7738 32.5907 94.0527L30.8241 95.3545L30.1267 95.0756L31.5214 91.7747L32.0793 92.0071L31.4749 93.4019C31.2425 93.9598 31.103 94.2387 30.8705 94.7501C31.2425 94.4247 31.5214 94.1922 31.8469 93.9598C32.3583 93.5878 33.0092 93.0764 33.6135 92.658L34.3109 92.9369L32.9162 96.2378L32.3583 95.9589Z" fill="#192632"/>
<path d="M26.8267 93.3552L27.0591 92.8903L28.0354 93.4017L29.4302 90.6587L29.9881 90.9376L28.5933 93.6806L29.5697 94.1921L29.3372 94.657L26.8267 93.3552Z" fill="#192632"/>
<path d="M25.6634 92.6578L26.4538 91.356C26.7327 90.8911 26.9652 90.5657 27.2441 90.1473C26.8257 90.4262 26.5932 90.5657 26.1748 90.7981L24.2222 91.7745L23.5713 91.356L25.431 88.2876L25.9424 88.613L25.152 89.9148C24.8266 90.4262 24.6871 90.6587 24.3616 91.1701C24.7801 90.8911 25.1055 90.7517 25.431 90.5192C26.0353 90.2402 26.7327 89.8218 27.3836 89.4964L28.0345 89.8683L26.1748 92.9368L25.6634 92.6578Z" fill="#192632"/>
<path d="M20.6418 89.3108L21.6181 88.102L21.4786 88.009L19.433 88.3809L18.8286 87.8695L21.0602 87.5441C20.6418 87.1257 20.5953 86.6143 20.7813 85.9169C20.8742 85.6844 20.9672 85.3125 21.0137 84.9871L21.5716 85.4055C21.5716 85.5914 21.4786 85.8704 21.3856 86.1958C21.1997 86.8002 21.3392 87.2186 21.8041 87.5906L21.8971 87.6836L22.8734 86.4283L23.3848 86.8467L21.1532 89.6827L20.6418 89.3108Z" fill="#192632"/>
<path d="M15.2954 84.5683L15.6674 84.1964L16.4577 84.9867L18.5963 82.7551L19.0612 83.22L16.9226 85.4516L17.713 86.242L17.341 86.6139L15.2954 84.5683Z" fill="#192632"/>
<path d="M13.9939 80.4771C14.9702 79.5938 16.0396 79.8728 16.5975 80.5236C17.2483 81.2675 17.2018 82.2903 16.365 83.0342C15.4817 83.8245 14.4123 83.7316 13.7615 82.9877C13.0641 82.2438 13.1571 81.221 13.9939 80.4771ZM15.9001 82.5693C16.5045 82.0579 16.6439 81.314 16.2255 80.8491C15.8071 80.3842 15.0632 80.4307 14.4588 80.9421C13.9939 81.3605 13.622 82.1044 14.1334 82.6622C14.6448 83.2666 15.3887 83.0342 15.9001 82.5693Z" fill="#192632"/>
<path d="M12.0878 80.8489C11.9018 80.6629 11.5763 80.3375 11.3439 79.9655C10.972 79.5006 10.4605 78.6173 11.1114 78.1524C11.4834 77.8734 11.9018 78.0129 12.2272 78.2453C11.9483 77.7804 11.9948 77.269 12.4132 76.9901C13.1571 76.4322 13.9939 77.3155 14.4123 77.8734C14.6448 78.1989 14.8772 78.5243 14.9702 78.7103L12.0878 80.8489ZM12.8781 79.4541L12.5992 79.0822C12.3202 78.7103 11.9018 78.3848 11.5763 78.6173C11.2974 78.8497 11.3439 79.1752 11.7158 79.6866C11.8553 79.8725 11.9483 79.9655 12.0413 80.0585L12.8781 79.4541ZM14.2264 78.4778C14.1334 78.3383 14.0404 78.1988 13.9474 78.0594C13.6685 77.6874 13.2035 77.269 12.7851 77.548C12.3667 77.8734 12.5992 78.3383 12.9711 78.8497L13.25 79.2217L14.2264 78.4778Z" fill="#192632"/>
<path d="M11.7164 74.0613L11.3445 74.3403C11.6699 74.3403 12.0883 74.5262 12.3673 74.9911C12.7392 75.5955 12.5068 76.1999 12.0883 76.4789C11.3445 76.9438 10.5541 76.5254 9.81026 75.3631L9.76376 75.4096C9.53131 75.549 9.11288 75.921 9.48481 76.5254C9.67078 76.8043 9.94973 77.0368 10.2287 77.1762L9.94973 77.5482C9.62429 77.4087 9.29885 77.0833 9.06639 76.7113C8.462 75.7815 8.97341 75.1306 9.5778 74.7587L10.6936 74.0148C10.9725 73.8289 11.205 73.6894 11.391 73.5034L11.7164 74.0613ZM10.1822 75.1306C10.5541 75.735 11.112 76.3394 11.6699 75.9675C12.0419 75.735 12.0418 75.4096 11.8559 75.1306C11.6234 74.7122 11.205 74.6657 10.8796 74.7122C10.8331 74.7122 10.7401 74.7587 10.6936 74.8052L10.1822 75.1306Z" fill="#192632"/>
<path d="M8.78657 73.9216C8.36814 74.1541 8.04271 74.34 7.76376 74.4795L7.48481 73.9681L7.99622 73.6427C7.48481 73.5962 7.06639 73.3637 6.78744 72.8523C6.36901 72.062 6.74094 71.1786 7.71727 70.6672C8.87955 70.0628 9.80938 70.4812 10.1813 71.2251C10.4138 71.6435 10.4138 72.1084 10.1813 72.4804L11.9015 71.5505L12.1805 72.1085L8.78657 73.9216ZM9.34447 72.8988C9.43745 72.8523 9.48394 72.8058 9.57693 72.7593C9.90237 72.4339 9.99535 71.969 9.80939 71.5505C9.48394 70.9462 8.78657 70.8532 8.08919 71.2251C7.43831 71.5505 7.06638 72.2014 7.39182 72.8058C7.57779 73.2242 8.08919 73.4102 8.55411 73.3172C8.64709 73.3172 8.74008 73.2707 8.83306 73.2242L9.34447 72.8988Z" fill="#192632"/>
<path d="M5.67175 70.3419L7.34544 68.8077C7.53141 68.6217 7.76386 68.4358 7.94983 68.2963C7.71737 68.2963 7.43842 68.3428 7.15947 68.3893L4.92788 68.5752L4.64893 67.9244L7.39192 67.8314C8.69369 67.7849 9.43755 67.8314 9.94896 68.1103C10.3209 68.2963 10.5533 68.5288 10.6463 68.6682L10.1814 69.0402C10.0884 68.9007 9.90248 68.7612 9.67002 68.6217C9.48405 68.5288 9.1586 68.3893 8.78667 68.3893C8.69369 68.3893 8.6472 68.3893 8.60071 68.3893C8.55421 68.3893 8.50773 68.4358 8.46124 68.4823L5.9042 70.9928L5.67175 70.3419Z" fill="#192632"/>
<path d="M0.185963 46.073L5.20706 46.3055L5.16056 46.9563L0.697373 46.7239L0.604398 49.0485L5.06757 49.2809L5.02109 49.9318L0 49.6993L0.185963 46.073Z" fill="#192632"/>
<path d="M3.71924 44.7247C4.60258 44.8177 5.021 44.3063 5.11398 43.6554C5.16047 43.1905 5.16047 42.9115 5.06749 42.6326L5.5324 42.5861C5.62539 42.8186 5.67188 43.237 5.5789 43.7949C5.43942 44.9107 4.60258 45.4221 3.53327 45.2826C2.46397 45.1431 1.7201 44.3993 1.85958 43.33C2.04554 42.1677 3.06836 41.9817 3.76573 42.0747C3.90521 42.0747 3.99819 42.1212 4.04468 42.1212L3.71924 44.7247ZM3.53327 42.7256C3.11485 42.6791 2.46397 42.7256 2.37099 43.4694C2.278 44.1203 2.8359 44.4923 3.30082 44.6317L3.53327 42.7256Z" fill="#192632"/>
<path d="M3.487 41.1918C3.02208 41.0989 2.65015 41.0059 2.32471 40.9594L2.46419 40.4015L3.06857 40.4945C2.69664 40.1225 2.55717 39.6576 2.69665 39.0997C2.88261 38.2629 3.76594 37.798 4.83525 38.0304C6.09052 38.3094 6.55544 39.2392 6.36948 40.076C6.27649 40.541 5.95105 40.9129 5.57911 41.0524L7.48527 41.4708L7.3458 42.1217L3.487 41.1918ZM4.55631 40.7734C4.64929 40.7734 4.74226 40.8199 4.83525 40.8199C5.30016 40.8199 5.71859 40.4945 5.81157 40.0296C5.95105 39.3322 5.48613 38.8208 4.69578 38.6348C3.99841 38.4953 3.30104 38.6813 3.16156 39.3787C3.06858 39.7971 3.30103 40.3085 3.71945 40.541C3.81244 40.5875 3.90542 40.6339 3.95191 40.6339L4.55631 40.7734Z" fill="#192632"/>
<path d="M5.34675 36.8678C6.1836 37.1467 6.695 36.6818 6.92746 36.0774C7.06693 35.6125 7.06694 35.3336 7.06694 35.0546L7.53186 35.1011C7.57835 35.3336 7.53185 35.752 7.39237 36.3099C7.06693 37.3792 6.13711 37.7511 5.11429 37.4257C4.09148 37.1002 3.4406 36.2169 3.76604 35.2406C4.13797 34.1248 5.20728 34.1248 5.85816 34.3572C5.99763 34.4037 6.09062 34.4502 6.13711 34.4502L5.34675 36.8678ZM5.48623 34.8687C5.1143 34.7292 4.41692 34.6827 4.18446 35.4265C3.9985 36.0774 4.46341 36.5423 4.88183 36.7283L5.48623 34.8687Z" fill="#192632"/>
<path d="M3.71965 31.3819C4.0451 31.4749 4.32404 31.4284 4.41703 31.1495C4.5565 30.8705 4.37054 30.6381 4.0916 30.4521L4.27756 30.0337C4.83546 30.3126 4.97493 30.7776 4.74247 31.289C4.51002 31.8934 3.99861 31.9863 3.53369 31.8004L3.71965 31.3819ZM4.88194 32.3118L6.27669 32.9162C6.7881 33.1486 7.11354 33.2881 7.57846 33.5206C7.25302 33.1486 7.06705 32.9162 6.7881 32.5442L5.48634 30.7776L5.76528 30.0802L9.06618 31.4749L8.83372 32.0328L7.43898 31.4284C6.88108 31.196 6.60213 31.0565 6.09073 30.824C6.41617 31.196 6.64863 31.4749 6.88109 31.8004C7.25302 32.3118 7.76442 32.9627 8.18284 33.567L7.90389 34.2644L4.60299 32.8697L4.88194 32.3118Z" fill="#192632"/>
<path d="M7.48535 26.7791L7.95027 27.0115L7.43886 27.9878L10.1819 29.3826L9.90292 29.9405L7.1599 28.5457L6.64851 29.5221L6.18359 29.2896L7.48535 26.7791Z" fill="#192632"/>
<path d="M8.18276 25.6165L9.48452 26.4069C9.99592 26.6858 10.2749 26.9183 10.6933 27.1972C10.4144 26.7788 10.2749 26.5464 10.0424 26.1279L9.0661 24.1753L9.48452 23.5244L12.553 25.3841L12.2275 25.8955L10.9258 25.1051C10.4144 24.7797 10.1819 24.6402 9.6705 24.3148C9.94944 24.7332 10.0889 25.0586 10.3214 25.3841C10.6003 25.9885 11.0187 26.6858 11.3442 27.3367L10.9723 27.9876L7.90381 26.1279L8.18276 25.6165Z" fill="#192632"/>
<path d="M11.5301 20.6423L12.7389 21.6186L12.8319 21.4791L12.46 19.4335L12.9714 18.8291L13.2968 21.0607C13.7152 20.6423 14.2266 20.5958 14.924 20.7817C15.1565 20.8747 15.5284 20.9677 15.8539 21.0142L15.4354 21.5721C15.2495 21.5721 14.9705 21.4791 14.6451 21.3861C14.0407 21.2002 13.6223 21.3396 13.2503 21.8046L13.1573 21.8975L14.4126 22.8739L13.9942 23.3853L11.1582 21.1537L11.5301 20.6423Z" fill="#192632"/>
<path d="M16.3191 15.2495L16.691 15.6214L15.9006 16.4118L18.1322 18.5504L17.6673 19.0153L15.4357 16.8767L14.6454 17.6671L14.2734 17.2951L16.3191 15.2495Z" fill="#192632"/>
<path d="M20.3628 13.9942C21.2461 14.9705 20.9671 16.0398 20.3163 16.5977C19.5724 17.2486 18.5496 17.2021 17.8057 16.3652C17.0154 15.4819 17.1083 14.4126 17.8522 13.7617C18.6426 13.0643 19.6654 13.1573 20.3628 13.9942ZM18.2706 15.9003C18.782 16.5047 19.5259 16.6442 19.9908 16.2258C20.4557 15.8073 20.4092 15.0635 19.8978 14.4591C19.4794 13.9942 18.7355 13.6222 18.1776 14.1336C17.5733 14.6451 17.8057 15.3889 18.2706 15.9003Z" fill="#192632"/>
<path d="M20.0381 12.0411C20.2241 11.8552 20.5495 11.5297 20.9214 11.2973C21.3863 10.9253 22.2697 10.4139 22.7346 11.0648C23.0135 11.4367 22.8741 11.8552 22.6416 12.1806C23.1065 11.9016 23.6179 11.9481 23.8969 12.3666C24.4548 13.1104 23.5714 13.9473 23.0135 14.3657C22.6881 14.5982 22.3627 14.8306 22.1767 14.9236L20.0381 12.0411ZM21.3863 12.878L21.7583 12.599C22.1302 12.3201 22.4557 11.9016 22.2232 11.5762C21.9907 11.2973 21.6653 11.3437 21.1539 11.7157C20.9679 11.8552 20.8749 11.9481 20.782 12.0411L21.3863 12.878ZM22.4092 14.1797C22.5486 14.0867 22.6881 13.9938 22.8276 13.9008C23.1995 13.6218 23.6179 13.1569 23.339 12.7385C23.0135 12.3201 22.5486 12.5525 22.0372 12.9245L21.6653 13.2034L22.4092 14.1797Z" fill="#192632"/>
<path d="M26.7793 11.6695L26.5004 11.2976C26.5004 11.623 26.3144 12.0415 25.8495 12.3204C25.2451 12.6923 24.6407 12.4599 24.3618 12.0415C23.8969 11.2976 24.3153 10.5072 25.4776 9.76338L25.4311 9.71689C25.2916 9.48443 24.9197 9.06601 24.3153 9.43794C24.0364 9.62391 23.8039 9.90286 23.6644 10.1818L23.2925 9.90285C23.432 9.57741 23.7574 9.25197 24.1293 9.01952C25.0592 8.41513 25.71 8.92653 26.082 9.53092L26.8258 10.6467C27.0118 10.9257 27.1513 11.1581 27.3372 11.3441L26.7793 11.6695ZM25.71 10.1818C25.1057 10.5537 24.5013 11.1116 24.8732 11.6695C25.1056 12.0415 25.4311 12.0415 25.71 11.8555C26.1285 11.623 26.175 11.2046 26.1285 10.8792C26.1285 10.8327 26.082 10.7397 26.0355 10.6932L25.71 10.1818Z" fill="#192632"/>
<path d="M26.9192 8.74043C26.6868 8.322 26.5008 7.99656 26.3613 7.71762L26.8727 7.43867L27.1982 7.95007C27.2447 7.43867 27.4771 7.02024 27.9885 6.74129C28.7789 6.32287 29.6622 6.6948 30.1736 7.67112C30.778 8.83341 30.3596 9.76324 29.6157 10.1352C29.1973 10.3676 28.7324 10.3676 28.3605 10.1352L29.2903 11.8554L28.7324 12.1343L26.9192 8.74043ZM27.942 9.29833C27.9885 9.39131 28.035 9.4378 28.0815 9.53078C28.4069 9.85623 28.8719 9.94921 29.2903 9.76324C29.8947 9.4378 29.9877 8.74043 29.6157 8.04306C29.2903 7.39217 28.6394 7.02024 28.035 7.34568C27.6166 7.53165 27.4306 8.04306 27.5236 8.50797C27.5236 8.60095 27.5701 8.69394 27.6166 8.78692L27.942 9.29833Z" fill="#192632"/>
<path d="M30.4985 5.67198L32.0327 7.34568C32.2187 7.53164 32.4047 7.7641 32.5442 7.95007C32.5442 7.71761 32.4977 7.43866 32.4512 7.15971L32.2652 4.92812L32.9161 4.64917L33.0091 7.39217C33.0556 8.69393 33.0091 9.4378 32.7301 9.9492C32.5442 10.3211 32.3117 10.5536 32.1722 10.6466L31.8003 10.1817C31.9398 10.0887 32.0793 9.90271 32.2187 9.67025C32.3117 9.48429 32.4512 9.15885 32.4512 8.78692C32.4512 8.69393 32.4512 8.64744 32.4512 8.60095C32.4512 8.55446 32.4047 8.50797 32.3582 8.46148L29.8477 5.90444L30.4985 5.67198Z" fill="#192632"/>
</svg>
