<svg width="125" height="31" viewBox="0 0 125 31" fill="none" xmlns="http://www.w3.org/2000/svg">
<path d="M40.6958 3.87885H36.1919V14.1859H38.2706V10.8115H40.6958C43.0632 10.8115 44.5068 10.014 44.5068 7.37587C44.5068 4.73776 43.0055 3.87885 40.6958 3.87885ZM40.7535 8.8483H38.2706V5.84209H40.7535C41.7929 5.84209 42.3126 6.14884 42.3126 7.37587C42.3703 8.54155 41.8506 8.8483 40.7535 8.8483Z" fill="#192632"/>
<path d="M52.9374 12.2843H48.087V9.95299H52.4177V8.0511H48.087V5.84245H52.8796V3.87921H46.0083V14.1862H52.9374V12.2843Z" fill="#192632"/>
<path d="M57.3833 14.1862H59.4621V5.90381H62.4647V3.87921H54.4385V5.90381H57.3833V14.1862Z" fill="#192632"/>
<path d="M70.1447 14.1862H72.5699L69.6828 10.3211C70.8377 9.95299 71.8193 9.03272 71.8193 7.25354C71.8193 4.61543 69.856 3.87921 67.9505 3.87921H63.9663V14.1862H66.045V10.5665H67.5463L70.1447 14.1862ZM65.9873 5.84245H68.0083C68.8744 5.84245 69.6251 6.21056 69.6251 7.31489C69.6251 8.35786 68.8744 8.78732 68.0083 8.78732H65.9873V5.84245Z" fill="#192632"/>
<path d="M78.2284 3.69513C74.7639 3.69513 73.0894 6.27188 73.0894 9.03269C73.0894 11.8549 74.8216 14.3703 78.2284 14.3703C81.693 14.3703 83.3675 11.7935 83.3675 9.03269C83.3675 6.27188 81.6352 3.69513 78.2284 3.69513ZM78.2284 12.3457C76.2074 12.3457 75.1681 10.8732 75.1681 9.03269C75.1681 7.19215 76.2074 5.71972 78.2284 5.71972C80.2494 5.71972 81.231 7.19215 81.231 9.03269C81.231 10.8732 80.1917 12.3457 78.2284 12.3457Z" fill="#192632"/>
<path d="M91.3359 11.9775C91.0472 12.1003 90.7008 12.1616 90.2966 12.1616C88.853 12.1616 86.9475 11.4867 86.9475 8.72593C86.9475 6.33323 88.6798 5.35161 90.4121 5.35161C91.3937 5.35161 92.3753 5.65836 93.126 6.14917V4.06323C92.2021 3.63377 91.1627 3.38837 90.1233 3.38837C87.4672 3.38837 84.811 4.9835 84.811 8.72593C84.811 12.5297 87.4094 14.0635 90.1233 14.0635C91.2205 14.0635 92.3176 13.8181 93.2992 13.3886V8.29647H91.3359V11.9775Z" fill="#192632"/>
<path d="M103.058 6.94677C103.058 4.30866 101.094 3.57245 99.1888 3.57245H95.2046V13.8795H97.2833V10.2597H98.7846L101.383 13.8795H103.808L100.921 10.0143C102.134 9.64623 103.058 8.72596 103.058 6.94677ZM99.3043 8.48056H97.2833V5.53569H99.3043C100.17 5.53569 100.921 5.9038 100.921 7.00812C100.921 8.0511 100.17 8.48056 99.3043 8.48056Z" fill="#192632"/>
<path d="M108.89 3.57245L104.905 13.8795H107.042L107.735 11.9776H112.181L112.874 13.8795H115.01L111.084 3.57245H108.89ZM108.428 10.137L109.756 6.45596C109.813 6.27191 109.929 6.0265 109.987 5.65839C110.044 6.0265 110.102 6.27191 110.218 6.45596L111.603 10.137H108.428Z" fill="#192632"/>
<path d="M119.919 3.57245H116.281V13.8795H119.919C123.383 13.8795 125 11.7322 125 8.72596C125 5.7811 123.383 3.57245 119.919 3.57245ZM119.919 11.9776H118.359V5.53569H119.919C121.824 5.53569 122.863 6.64002 122.863 8.72596C122.863 10.8733 121.824 11.9776 119.919 11.9776Z" fill="#192632"/>
<path d="M31.7995 16.5496C31.7995 16.485 31.7995 16.485 31.7995 16.4203C31.7995 16.3557 31.7995 16.3557 31.7388 16.291L27.8549 6.65864C27.8549 6.59399 27.8549 6.52934 27.7942 6.40005L26.2164 2.52123C26.2164 2.52123 26.2164 2.52123 26.2164 2.45658C26.2164 2.45658 26.2164 2.39194 26.1557 2.39194L26.095 2.32729L26.0343 2.26264C26.0343 2.26264 26.0343 2.26264 25.9737 2.26264L21.3008 0.193941C21.2401 0.193941 21.2401 0.193941 21.1795 0.129294C21.1795 0.129294 21.1795 0.129294 21.1188 0.129294C21.1188 0.129294 21.0581 0.129294 20.9974 0.129294L10.8021 0C10.7414 0 10.7414 0 10.6808 0C10.6201 0 10.6201 0 10.5594 0.064647L5.94724 2.13335C5.94724 2.13335 5.94724 2.13335 5.88655 2.13335C5.88655 2.13335 5.82587 2.13335 5.82587 2.198C5.82587 2.198 5.82587 2.198 5.76518 2.26264L5.7045 2.32729C5.7045 2.32729 5.7045 2.32729 5.7045 2.39194C5.7045 2.39194 5.7045 2.45658 5.64381 2.45658L4.00528 6.3354C4.00528 6.40005 3.9446 6.46469 3.9446 6.59399L0.0606861 16.2264C0.0606861 16.291 0.0606861 16.291 0 16.3557V16.4203C0 16.485 0 16.485 0 16.5496C0 16.5496 0 16.5496 0 16.6143C0 16.6789 0 16.6789 0 16.7436C0 16.8082 0 16.8082 0.0606861 16.8729V16.9375L0.121372 17.0021C0.121372 17.0668 0.182058 17.0668 0.242745 17.1314L4.49077 20.4284L15.2929 29.8669C15.2929 29.8669 15.2929 29.9315 15.3536 29.9315C15.475 30.1255 15.657 30.1901 15.8391 30.1901C15.8391 30.1901 15.8391 30.1901 15.8998 30.1901C16.0818 30.1901 16.2639 30.1255 16.3853 29.9315C16.3853 29.9315 16.3853 29.8669 16.4459 29.8669L27.0053 20.7678L26.9446 20.7032C26.7019 20.38 26.5198 19.9921 26.4592 19.6042V19.4102L15.8998 28.5093L5.82587 19.782L8.7388 15.9678L12.38 21.6567V23.5961C12.38 23.8547 12.5013 24.0487 12.6834 24.178L15.4143 25.8588C15.5356 25.9881 15.7177 26.0527 15.8998 26.0527H15.9605C16.1425 26.0527 16.3246 25.9881 16.4459 25.8588L19.1768 24.178C19.3589 24.0487 19.4802 23.7901 19.4802 23.5961V21.6567L23.1214 15.9678L26.884 20.881L27.3694 20.4284L31.6175 17.1314C31.6782 17.1314 31.6782 17.0668 31.7388 17.0668C31.7388 17.0668 31.7995 17.0021 31.7995 16.9375C31.7995 16.8729 31.8602 16.8729 31.8602 16.8082C31.7388 16.6789 31.7388 16.6143 31.7995 16.5496ZM18.0845 21.9153V23.1436L15.8391 24.5012L13.5937 23.1436V21.9153L15.8391 21.2688L18.0845 21.9153ZM10.3773 11.0546L4.73352 18.8769L1.69921 16.485L9.04223 9.89098L10.3773 11.0546ZM5.46175 6.3354L6.49342 3.81417L10.4987 6.46469L8.79949 8.08087L5.46175 6.3354ZM11.8338 5.68893L7.64645 2.90911L10.6201 1.55153L13.2296 5.68893H11.8338ZM18.57 5.68893L21.1795 1.55153L24.1531 2.90911L19.9657 5.68893H18.57ZM11.5911 11.7011H12.5013L11.409 16.4203C11.409 16.485 11.409 16.485 11.409 16.5496C11.409 16.5496 11.409 16.5496 11.409 16.6143C11.409 16.6789 11.409 16.7436 11.409 16.7436C11.409 16.8082 11.409 16.8082 11.4697 16.8729C11.4697 16.8729 11.4697 16.8729 11.4697 16.9375L11.5304 17.0021L11.5911 16.9375H11.5304L11.5911 17.0021C11.5911 17.0021 11.5911 17.0021 11.5911 17.0668L14.6254 20.2345L13.2903 20.6224L9.46704 14.6749L11.5911 11.7011ZM11.5304 10.2789L9.95253 8.85663L11.8945 7.11116H13.5937L12.8655 10.2789H11.5304ZM16.9921 5.68893H14.7467L12.0765 1.42223H19.723L16.9921 5.68893ZM16.8707 7.11116L18.9341 15.8385H12.9261L14.9288 7.11116H16.8707ZM20.2085 17.0021C20.2692 16.9375 20.2692 16.9375 20.2692 16.9375C20.2692 16.9375 20.3299 16.8729 20.3299 16.8082C20.3299 16.7436 20.3905 16.7436 20.3905 16.6789C20.3905 16.6143 20.3905 16.6143 20.3905 16.5496C20.3905 16.5496 20.3905 16.5496 20.3905 16.485C20.3905 16.4203 20.3905 16.4203 20.3905 16.3557L19.2982 11.6365H20.2085L22.3325 14.6102L18.5093 20.5577L17.1742 20.1698L20.2085 17.0021ZM18.9341 10.2789L18.2058 7.11116H19.9051L21.847 8.85663L20.2692 10.2789H18.9341ZM18.0845 17.1961L15.8391 19.4587L13.5937 17.1961H18.0845ZM22.9394 8.08087L21.2401 6.46469L25.2454 3.81417L26.2771 6.3354L22.9394 8.08087ZM30.0396 16.485L27.0053 18.8769L21.3615 11.0546L22.6966 9.89098L30.0396 16.485ZM24.0317 9.05057L26.8233 7.62834L29.3721 14.0284L24.0317 9.05057ZM2.36676 14.0284L4.91558 7.62834L7.70714 9.05057L2.36676 14.0284Z" fill="#192632"/>
<path d="M36.665 17.1635V27.2354H40.996C42.7514 27.2354 44.9528 26.703 44.9528 24.4153C44.9528 22.9332 44.0176 22.1994 43.0248 21.9117C43.9168 21.6095 44.5499 20.8901 44.5499 19.7102C44.5499 17.9836 43.2118 17.1635 41.0679 17.1635H36.665ZM42.7945 24.185C42.7945 25.2786 41.9312 25.48 40.9672 25.48H38.8089V22.8901H41.0823C41.9456 22.8901 42.7945 23.1203 42.7945 24.185ZM42.406 20.0843C42.406 20.8613 41.8161 21.2354 40.996 21.2354H38.8233V18.9332H40.8809C41.8305 18.9332 42.406 19.2929 42.406 20.0843Z" fill="#FC0000"/>
<path d="M46.6729 17.1635V27.2354H48.8312V17.1635H46.6729Z" fill="#FC0000"/>
<path d="M53.2888 27.2354V23.1203H54.9147L57.6629 27.2354H60.0514L56.5982 22.0699L59.8643 17.1635H57.4615L54.9147 21.1635H53.2888V17.1635H51.1305V27.2354H53.2888Z" fill="#FC0000"/>
<path d="M61.2227 17.1635V27.2354H68.4026V25.3361H63.381V23.0915H67.8846V21.2066H63.381V19.0627H68.3162V17.1635H61.2227Z" fill="#FC0000"/>
</svg>
